<mxfile host="Electron" modified="2023-04-03T07:45:52.171Z" agent="Mozilla/5.0 (X11; Linux x86_64) AppleWebKit/537.36 (KHTML, like Gecko) draw.io/21.1.2 Chrome/106.0.5249.199 Electron/21.4.3 Safari/537.36" etag="DQliae3wpsdRynTiLCyj" version="21.1.2" type="device">
  <diagram name="Page-1" id="74b105a0-9070-1c63-61bc-23e55f88626e">
    <mxGraphModel dx="1434" dy="870" grid="1" gridSize="10" guides="1" tooltips="1" connect="1" arrows="1" fold="1" page="1" pageScale="1.5" pageWidth="1169" pageHeight="826" background="none" math="0" shadow="0">
      <root>
        <mxCell id="0" style=";html=1;" />
        <mxCell id="1" style=";html=1;" parent="0" />
        <mxCell id="9QPtc-Q_uSKH_jWS5O0u-1" value="" style="rounded=0;whiteSpace=wrap;html=1;fillColor=#bac8d3;strokeColor=#23445d;" parent="1" vertex="1">
          <mxGeometry y="411" width="1200" height="417.5" as="geometry" />
        </mxCell>
        <mxCell id="AzqcnyQzKy9WL4qiRQvG-4" value="" style="edgeStyle=orthogonalEdgeStyle;rounded=0;orthogonalLoop=1;jettySize=auto;html=1;fontColor=#000000;strokeColor=#000000;" parent="1" source="-qlfuwF-1jwrvafE3BXy-18" target="AzqcnyQzKy9WL4qiRQvG-3" edge="1">
          <mxGeometry relative="1" as="geometry" />
        </mxCell>
        <mxCell id="-qlfuwF-1jwrvafE3BXy-18" value="AWS Database Migration Service" style="strokeWidth=2;dashed=0;align=left;fontSize=12;shape=rect;verticalLabelPosition=bottom;verticalAlign=top;fillColor=#ffe6cc;strokeColor=#d79b00;fontColor=#000000;" parent="1" vertex="1">
          <mxGeometry x="620" y="590" width="150" height="90" as="geometry" />
        </mxCell>
        <mxCell id="-qlfuwF-1jwrvafE3BXy-6" value="" style="edgeStyle=orthogonalEdgeStyle;rounded=0;orthogonalLoop=1;jettySize=auto;html=1;fontColor=#000000;strokeColor=#000000;" parent="1" source="10b056a9c633e61c-4" target="-qlfuwF-1jwrvafE3BXy-4" edge="1">
          <mxGeometry relative="1" as="geometry" />
        </mxCell>
        <mxCell id="10b056a9c633e61c-4" value="AWS RDS Microsoft SQL" style="strokeWidth=2;dashed=0;align=left;fontSize=12;shape=rect;verticalLabelPosition=bottom;verticalAlign=top;fillColor=#ffe6cc;strokeColor=#d79b00;fontColor=#000000;" parent="1" vertex="1">
          <mxGeometry x="150" y="590" width="150" height="90" as="geometry" />
        </mxCell>
        <mxCell id="-qlfuwF-1jwrvafE3BXy-19" value="" style="edgeStyle=orthogonalEdgeStyle;rounded=0;orthogonalLoop=1;jettySize=auto;html=1;fontColor=#000000;strokeColor=#000000;" parent="1" source="-qlfuwF-1jwrvafE3BXy-4" target="-qlfuwF-1jwrvafE3BXy-18" edge="1">
          <mxGeometry relative="1" as="geometry" />
        </mxCell>
        <mxCell id="-qlfuwF-1jwrvafE3BXy-4" value="AWS Database Migration Service" style="strokeWidth=2;dashed=0;align=left;fontSize=12;shape=rect;verticalLabelPosition=bottom;verticalAlign=top;fillColor=#ffe6cc;strokeColor=#d79b00;fontColor=#000000;" parent="1" vertex="1">
          <mxGeometry x="380" y="589.27" width="150" height="90" as="geometry" />
        </mxCell>
        <mxCell id="AzqcnyQzKy9WL4qiRQvG-3" value="AWS RDS MySQL" style="strokeWidth=2;dashed=0;align=left;fontSize=12;shape=rect;verticalLabelPosition=bottom;verticalAlign=top;fillColor=#ffe6cc;strokeColor=#d79b00;fontColor=#000000;" parent="1" vertex="1">
          <mxGeometry x="862" y="590" width="150" height="90" as="geometry" />
        </mxCell>
        <mxCell id="i3nGPntlqTUSJxihndr1-5" value="database&lt;br&gt;migration&lt;br&gt;task" style="text;html=1;align=center;verticalAlign=middle;resizable=0;points=[];autosize=1;strokeColor=none;fillColor=none;fontColor=#000000;" parent="1" vertex="1">
          <mxGeometry x="780" y="580" width="70" height="60" as="geometry" />
        </mxCell>
        <mxCell id="dRJTYx54ZhGCLM6XIU96-6" value="connect" style="text;html=1;align=center;verticalAlign=middle;resizable=0;points=[];autosize=1;strokeColor=none;fillColor=none;fontColor=#000000;" parent="1" vertex="1">
          <mxGeometry x="300" y="610" width="70" height="30" as="geometry" />
        </mxCell>
        <mxCell id="eYDjJMWm2Yjtzw31elS9-1" value="&lt;svg class=&quot;w-6 h-6&quot; height=&quot;40&quot; width=&quot;40&quot; xmlns=&quot;http://www.w3.org/2000/svg&quot;&gt;&lt;defs&gt;&lt;linearGradient x1=&quot;0%&quot; y1=&quot;100%&quot; x2=&quot;100%&quot; y2=&quot;0%&quot; id=&quot;Arch_Amazon-RDS_32_svg__a&quot;&gt;&lt;stop stop-color=&quot;#2E27AD&quot; offset=&quot;0%&quot;&gt;&lt;/stop&gt;&lt;stop stop-color=&quot;#527FFF&quot; offset=&quot;100%&quot;&gt;&lt;/stop&gt;&lt;/linearGradient&gt;&lt;/defs&gt;&lt;g fill=&quot;none&quot; fill-rule=&quot;evenodd&quot;&gt;&lt;path d=&quot;M0 0h40v40H0z&quot; fill=&quot;url(#Arch_Amazon-RDS_32_svg__a)&quot;&gt;&lt;/path&gt;&lt;path d=&quot;M11.854 28.854L7.708 33H10.5v1h-4a.5.5 0 01-.5-.5v-4h1v2.793l4.147-4.146.707.707zM33 29.5h1v4c0 .277-.223.5-.5.5h-4v-1h2.793l-4.146-4.146.707-.707L33 32.293V29.5zm1-23v4h-1V7.708l-4.146 4.146-.707-.707L32.293 7H29.5V6h4a.5.5 0 01.5.5zm-27 4H6v-4a.5.5 0 01.5-.5h4v1H7.527l4.319 4.14-.691.721L7 7.88v2.62zm25.726 8.9c0-1.558-1.806-3.1-4.83-4.123l.32-.947c3.502 1.185 5.51 3.033 5.51 5.07 0 2.037-2.008 3.886-5.51 5.071l-.32-.948c3.024-1.023 4.83-2.565 4.83-4.123zm-24.989 0c0 1.492 1.69 2.993 4.521 4.014l-.34.94c-3.293-1.187-5.181-2.993-5.181-4.954 0-1.961 1.888-3.767 5.181-4.955l.34.941c-2.831 1.021-4.521 2.522-4.521 4.014zm12.286-3.681c-3.136 0-4.891-.799-4.917-1.125.026-.326 1.781-1.125 4.917-1.125 3.133 0 4.89.798 4.917 1.125-.027.326-1.784 1.125-4.917 1.125zm0 3.555c-3.182 0-4.917-.926-4.917-1.402v-2.03c1.135.595 3.069.877 4.917.877 1.848 0 3.782-.282 4.917-.877v2.03c0 .476-1.735 1.402-4.917 1.402zm0 3.737c-3.182 0-4.917-.927-4.917-1.403v-2.343c1.119.665 3.023 1.009 4.917 1.009 1.894 0 3.798-.344 4.917-1.009v2.343c0 .476-1.735 1.403-4.917 1.403zm0 3.279c-3.182 0-4.917-.915-4.917-1.385v-1.904c1.119.666 3.023 1.01 4.917 1.01 1.894 0 3.798-.344 4.917-1.01v1.904c0 .47-1.735 1.385-4.917 1.385zm0-13.821c-2.85 0-5.917.665-5.917 2.125v10.311c0 1.566 2.977 2.385 5.917 2.385s5.917-.819 5.917-2.385V14.594c0-1.46-3.067-2.125-5.917-2.125z&quot; fill=&quot;#FFF&quot;&gt;&lt;/path&gt;&lt;/g&gt;&lt;/svg&gt;" style="text;whiteSpace=wrap;html=1;align=center;verticalAlign=middle;" parent="1" vertex="1">
          <mxGeometry x="190" y="600.72" width="70" height="70" as="geometry" />
        </mxCell>
        <mxCell id="eYDjJMWm2Yjtzw31elS9-3" value="replication&lt;br&gt;instance&lt;br&gt;endpoints" style="text;html=1;align=center;verticalAlign=middle;resizable=0;points=[];autosize=1;strokeColor=none;fillColor=none;fontColor=#000000;" parent="1" vertex="1">
          <mxGeometry x="540" y="580" width="80" height="60" as="geometry" />
        </mxCell>
        <mxCell id="yj3nhXeXnLgTxeDTZ7Eq-3" value="&lt;svg class=&quot;w-6 h-6&quot; height=&quot;40&quot; width=&quot;40&quot; xmlns=&quot;http://www.w3.org/2000/svg&quot;&gt;&lt;defs&gt;&lt;linearGradient x1=&quot;0%&quot; y1=&quot;100%&quot; x2=&quot;100%&quot; y2=&quot;0%&quot; id=&quot;Arch_Amazon-RDS_32_svg__a&quot;&gt;&lt;stop stop-color=&quot;#2E27AD&quot; offset=&quot;0%&quot;&gt;&lt;/stop&gt;&lt;stop stop-color=&quot;#527FFF&quot; offset=&quot;100%&quot;&gt;&lt;/stop&gt;&lt;/linearGradient&gt;&lt;/defs&gt;&lt;g fill=&quot;none&quot; fill-rule=&quot;evenodd&quot;&gt;&lt;path d=&quot;M0 0h40v40H0z&quot; fill=&quot;url(#Arch_Amazon-RDS_32_svg__a)&quot;&gt;&lt;/path&gt;&lt;path d=&quot;M11.854 28.854L7.708 33H10.5v1h-4a.5.5 0 01-.5-.5v-4h1v2.793l4.147-4.146.707.707zM33 29.5h1v4c0 .277-.223.5-.5.5h-4v-1h2.793l-4.146-4.146.707-.707L33 32.293V29.5zm1-23v4h-1V7.708l-4.146 4.146-.707-.707L32.293 7H29.5V6h4a.5.5 0 01.5.5zm-27 4H6v-4a.5.5 0 01.5-.5h4v1H7.527l4.319 4.14-.691.721L7 7.88v2.62zm25.726 8.9c0-1.558-1.806-3.1-4.83-4.123l.32-.947c3.502 1.185 5.51 3.033 5.51 5.07 0 2.037-2.008 3.886-5.51 5.071l-.32-.948c3.024-1.023 4.83-2.565 4.83-4.123zm-24.989 0c0 1.492 1.69 2.993 4.521 4.014l-.34.94c-3.293-1.187-5.181-2.993-5.181-4.954 0-1.961 1.888-3.767 5.181-4.955l.34.941c-2.831 1.021-4.521 2.522-4.521 4.014zm12.286-3.681c-3.136 0-4.891-.799-4.917-1.125.026-.326 1.781-1.125 4.917-1.125 3.133 0 4.89.798 4.917 1.125-.027.326-1.784 1.125-4.917 1.125zm0 3.555c-3.182 0-4.917-.926-4.917-1.402v-2.03c1.135.595 3.069.877 4.917.877 1.848 0 3.782-.282 4.917-.877v2.03c0 .476-1.735 1.402-4.917 1.402zm0 3.737c-3.182 0-4.917-.927-4.917-1.403v-2.343c1.119.665 3.023 1.009 4.917 1.009 1.894 0 3.798-.344 4.917-1.009v2.343c0 .476-1.735 1.403-4.917 1.403zm0 3.279c-3.182 0-4.917-.915-4.917-1.385v-1.904c1.119.666 3.023 1.01 4.917 1.01 1.894 0 3.798-.344 4.917-1.01v1.904c0 .47-1.735 1.385-4.917 1.385zm0-13.821c-2.85 0-5.917.665-5.917 2.125v10.311c0 1.566 2.977 2.385 5.917 2.385s5.917-.819 5.917-2.385V14.594c0-1.46-3.067-2.125-5.917-2.125z&quot; fill=&quot;#FFF&quot;&gt;&lt;/path&gt;&lt;/g&gt;&lt;/svg&gt;" style="text;whiteSpace=wrap;html=1;align=center;verticalAlign=middle;" parent="1" vertex="1">
          <mxGeometry x="902" y="600.72" width="70" height="70" as="geometry" />
        </mxCell>
        <mxCell id="8yubG_AVU3vbo5marA_D-1" value="&lt;svg class=&quot;w-6 h-6&quot; height=&quot;40&quot; width=&quot;40&quot; xmlns=&quot;http://www.w3.org/2000/svg&quot;&gt;&lt;defs&gt;&lt;linearGradient x1=&quot;0%&quot; y1=&quot;100%&quot; x2=&quot;100%&quot; y2=&quot;0%&quot; id=&quot;Arch_AWS-Database-Migration_32_svg__a&quot;&gt;&lt;stop stop-color=&quot;#2E27AD&quot; offset=&quot;0%&quot;&gt;&lt;/stop&gt;&lt;stop stop-color=&quot;#527FFF&quot; offset=&quot;100%&quot;&gt;&lt;/stop&gt;&lt;/linearGradient&gt;&lt;/defs&gt;&lt;g fill=&quot;none&quot; fill-rule=&quot;evenodd&quot;&gt;&lt;path d=&quot;M0 0h40v40H0z&quot; fill=&quot;url(#Arch_AWS-Database-Migration_32_svg__a)&quot;&gt;&lt;/path&gt;&lt;path d=&quot;M22.024 33h1v-2.997h-1V33zm-5.019 0h1v-2.997h-1V33zM26 32.001h1v-2.996h-1V32zm-13 0h1v-2.996h-1V32zm7.018-14.96c-3.717 0-6.018-.958-6.018-1.847v-3.548c1.173.885 3.304 1.418 6.018 1.418 2.604 0 4.782-.583 5.982-1.49v3.62c0 .908-2.238 1.847-5.982 1.847zm0 5.019c-3.547 0-6.018-1.084-6.018-2.057V16.8c1.34.892 3.805 1.24 6.018 1.24 2.725 0 4.825-.462 5.982-1.25v3.213c0 .973-2.456 2.057-5.982 2.057zm0 5.006c-3.491 0-6.018-1.503-6.018-2.516v-2.9c1.294.928 3.664 1.408 6.018 1.408 2.635 0 4.793-.547 5.982-1.416v2.908c0 1-2.386 2.516-5.982 2.516zm0-19.067c3.695 0 5.982.989 5.982 1.905 0 .903-2.276 2.161-5.982 2.161-3.43 0-6.018-.929-6.018-2.161 0-.778 2.143-1.905 6.018-1.905zm0-.999C16.638 7 13 7.909 13 9.904V24.55c0 1.873 3.279 3.515 7.018 3.515 3.719 0 6.982-1.642 6.982-3.515V9.904C27 7.898 23.493 7 20.018 7z&quot; fill=&quot;#FFF&quot;&gt;&lt;/path&gt;&lt;/g&gt;&lt;/svg&gt;" style="text;whiteSpace=wrap;html=1;align=center;verticalAlign=middle;" vertex="1" parent="1">
          <mxGeometry x="420" y="600.72" width="70" height="70" as="geometry" />
        </mxCell>
        <mxCell id="8yubG_AVU3vbo5marA_D-2" value="&lt;svg class=&quot;w-6 h-6&quot; height=&quot;48&quot; width=&quot;48&quot; xmlns=&quot;http://www.w3.org/2000/svg&quot;&gt;&lt;path d=&quot;M24.036 41.068C16.631 41.068 12 39 12 37.083v-3.036c1.557 1.186 3.976 2.066 7 2.526v2.432h2v-2.192c.967.081 1.98.125 3.036.125 1.028 0 2.02-.04 2.964-.118v4.126c-.93.077-1.915.122-2.964.122zM12 26.066v-3.559c2.326 1.637 6.585 2.623 12.015 2.623 5.407 0 9.653-.976 11.985-2.6v3.536c0 .688-1.659 1.942-6.233 2.583-.98.138-2.017.24-3.08.303-.435.025-.877.046-1.325.058a44.21 44.21 0 01-2.725 0c-.449-.012-.89-.033-1.325-.058a38.696 38.696 0 01-3.08-.303C13.658 28.01 12 26.754 12 26.066zM24 4c7.88 0 12.002 1.93 12.002 2.964v.273c0 .797-3.685 2.894-11.945 2.894-8.259 0-12.05-1.985-12.05-2.782v-.385C12.006 5.93 16.12 4 24 4zM12 16.631c2.562 1.66 7.29 2.431 11.995 2.431 4.711 0 9.444-.773 12.005-2.437l.002 2.574v.148c0 1.82-4.594 3.784-11.987 3.784-7.392 0-12.013-1.964-12.013-3.784L12 19.15v-2.519zm0-6.776c2.58 1.55 7.44 2.276 12.057 2.276 4.554 0 9.336-.709 11.943-2.213v3.73c0 1.396-4.312 3.414-12.005 3.414-7.693 0-11.99-2.018-11.99-3.414l-.005-.16V9.854zm26 27.228v-.077h-2v.255c-.203 1.387-2.748 2.817-7 3.458v-4.135c3.01-.45 5.428-1.314 7-2.48v.902h2v-5.001h-2v.866c-.203 1.482-2.748 3.01-7 3.695v-1.56h-2v1.802a33.603 33.603 0 01-6-.008v-3.867c.065.004.13.011.194.015a46.703 46.703 0 004.23.062c.466-.014.927-.035 1.381-.062a40.811 40.811 0 003.241-.318c5.13-.719 7.954-2.339 7.954-4.564V6.964C38 3.535 30.97 2 24 2c-6.969 0-14 1.535-14 4.964v19.102c0 2.225 2.825 3.846 7.953 4.564.341.047.695.084 1.047.124v3.8c-4.389-.72-6.998-2.342-6.998-3.874v-.675H10v15.001h2v-4.655c2.328 1.696 6.596 2.717 12.036 2.717 1.032 0 2.021-.037 2.964-.108v3.045h2v-3.262c3.028-.418 5.436-1.229 7-2.337v4.6h2v-7.658c-.002-.089 0-.128 0-.218v-.047z&quot; fill=&quot;#2E27AD&quot; fill-rule=&quot;evenodd&quot;&gt;&lt;/path&gt;&lt;/svg&gt;" style="text;whiteSpace=wrap;html=1;align=center;verticalAlign=middle;" vertex="1" parent="1">
          <mxGeometry x="655" y="600" width="80" height="70" as="geometry" />
        </mxCell>
      </root>
    </mxGraphModel>
  </diagram>
</mxfile>
